<?xml version="1.0" encoding="UTF-8"?>
<svg id="Layer_1" data-name="Layer 1" xmlns="http://www.w3.org/2000/svg" viewBox="0 0 153.78 132.86">
  <defs>
    <style>
      .cls-1 {
        fill: #00b5ed;
        opacity: .2;
      }

      .cls-2 {
        fill: #96d9ee;
      }

      .cls-3 {
        fill: #eef8fb;
        stroke: #00bede;
        stroke-miterlimit: 10;
      }

      .cls-4 {
        fill: #f26524;
      }

      .cls-5 {
        fill: #232020;
      }
    </style>
  </defs>
  <path class="cls-5" d="m132.85,66.43c0,10.42-2.4,20.28-6.67,29.05-10.78,22.13-33.49,37.38-59.75,37.38C29.74,132.86,0,103.12,0,66.43,0,44.79,10.35,25.57,26.37,13.44c5.29-4.01,11.2-7.24,17.57-9.53,7.02-2.53,14.6-3.91,22.49-3.91,34.52,0,62.89,26.34,66.11,60.03.21,2.1.31,4.24.31,6.4Z"/>
  <path class="cls-1" d="m132.85,66.43c0,10.42-2.4,20.28-6.67,29.05-11.13,8.43-25.01,13.44-40.05,13.44-36.69,0-66.43-29.75-66.43-66.43,0-10.42,2.4-20.28,6.67-29.05,5.29-4.01,11.2-7.24,17.57-9.53,7.02-2.53,14.6-3.91,22.49-3.91,34.52,0,62.89,26.34,66.11,60.03.21,2.1.31,4.24.31,6.4Z"/>
  <path class="cls-1" d="m132.54,60.03c-7.02,2.53-14.6,3.91-22.49,3.91-34.52,0-62.89-26.34-66.11-60.03,7.02-2.53,14.6-3.91,22.49-3.91,34.52,0,62.89,26.34,66.11,60.03Z"/>
  <polygon class="cls-4" points="105.21 36.11 105.21 42.49 102.06 35.63 105.21 36.11"/>
  <path class="cls-2" d="m4.07,111.81c31.12,2.34,81.78-.96,124.02-37.14l7.47,14.7,18.22-38.71-39.93-6.14,7.82,17.03S83.7,106.26,4.14,108.42c-2.16.06-2.23,3.24-.07,3.4Z"/>
  <g>
    <path class="cls-3" d="m46.57,58.6v36.96c-6.68,1.72-13.84,3.16-21.5,4.17v-41.13c0-2.46,1.99-4.45,4.45-4.45h12.6c2.46,0,4.45,1.99,4.45,4.45Z"/>
    <path class="cls-3" d="m75.89,41.43v43.67c-6.39,2.98-13.56,5.81-21.5,8.25v-51.92c0-2.46,1.99-4.45,4.45-4.45h12.6c2.46,0,4.45,1.99,4.45,4.45Z"/>
    <path class="cls-3" d="m105.21,25.93v41.25c-5.27,4.17-12.42,9.15-21.5,14.01V25.93c0-2.45,1.99-4.45,4.45-4.45h12.6c2.45,0,4.45,2,4.45,4.45Z"/>
  </g>
</svg>